# xmcd CD database file
#
# Track frame offsets:
#	182
#	13127
#	28655
#	44932
#	58377
#	78810
#	94722
#	110220
#	118945
#	135227
#	150835
#
# Disc length: 2192 seconds
#
# Revision: 1
# Processed by: cddbd v1.5.1PL2 Copyright (c) Steve Scherf et al.
# Submitted via: CDex 1.51
#
DISCID=91088e0b
DTITLE=Poco - Head Over Heels
DYEAR=1975
DGENRE=Westcoast Rock
TTITLE0=Keep On Tryin'
TTITLE1=Lovin' Arms
TTITLE2=Let Me Turn Back To You
TTITLE3=Makin' Love
TTITLE4=Down In The Quarter
TTITLE5=Sittin' On A Fence
TTITLE6=Geoegia, Bind My Ties
TTITLE7=Us
TTITLE8=Flyin' Solo
TTITLE9=Dallas
TTITLE10=I'll Be Back Again
EXTD=YEAR: 1975
EXTT0=
EXTT1=
EXTT2=
EXTT3=
EXTT4=
EXTT5=
EXTT6=
EXTT7=
EXTT8=
EXTT9=
EXTT10=
PLAYORDER=
